<?xml version="1.0" encoding="utf-8"?>
<!-- Generator: Adobe Illustrator 15.0.0, SVG Export Plug-In . SVG Version: 6.00 Build 0)  -->
<!DOCTYPE svg PUBLIC "-//W3C//DTD SVG 1.1//EN" "http://www.w3.org/Graphics/SVG/1.1/DTD/svg11.dtd">
<svg version="1.1" id="Layer_1" xmlns="http://www.w3.org/2000/svg" xmlns:xlink="http://www.w3.org/1999/xlink" x="0px" y="0px"
	 width="152.5px" height="46.55px" viewBox="0 0 152.5 46.55" enable-background="new 0 0 152.5 46.55" xml:space="preserve">
<symbol  id="Ojo1" viewBox="-27.625 -4.125 55.25 8.25">
	<g id="Layer_1_2_">
		<path fill="#AFCB36" d="M-23.55-3c-1.35,0.726-2.708,1.916-4.075,3.575c3.533,1.533,6.267,2.717,8.2,3.55v-2.5
			c-0.767-0.3-1.55-0.649-2.35-1.05c0.233-2.067,1.017-3.633,2.35-4.7C-20.825-4.1-22.2-3.725-23.55-3z M18.875-2.725v3.3
			c0.267-0.167,0.533-0.367,0.8-0.601c2.533-2.065,5.183-3.268,7.95-3.601l-0.1-0.1l-0.65-0.102
			C24.208-4.258,21.542-3.892,18.875-2.725z"/>
	</g>
	<g id="Layer_2_2_">
	</g>
</symbol>
<symbol  id="ojo2" viewBox="-13.35 -12.85 26.7 25.699">
	<g id="Layer_1_1_">
		<path fill="#AB237E" d="M12.6,0.6c0-0.199,0-0.399,0-0.6c0-1.167-0.133-2.283-0.4-3.351V-3.4C11.633-5.533,10.533-7.433,8.9-9.1
			c-2.467-2.5-5.434-3.75-8.9-3.75S-6.433-11.6-8.9-9.1c-1.066,1.1-1.9,2.299-2.5,3.6c-0.233,0.532-0.433,1.083-0.6,1.649
			C-12.367-2.651-12.55-1.368-12.55,0c0,0.866,0.083,1.717,0.25,2.55c0.033,0.333,0.1,0.667,0.2,1c0.566,2.065,1.633,3.917,3.2,5.55
			c2.467,2.5,5.433,3.75,8.9,3.75S6.434,11.6,8.9,9.1c1.8-1.866,2.95-3.982,3.45-6.35C12.483,2.05,12.567,1.333,12.6,0.6z"/>
	</g>
	<g id="Layer_2_1_">
	</g>
	<g id="Layer_3_1_">
	</g>
	<g id="Layer_6_1_">
		<path fill="#AFCB36" d="M13.05,4.75V0.5c-7.9,7.566-16.7,7.833-26.4,0.8V3.65C-5.183,11.116,3.617,11.482,13.05,4.75z M12.95-2.65
			l0.4-3.05C6.083-13.001-2.8-13.784-13.3-8.051v3C-4.533-11.116,4.217-10.317,12.95-2.65z"/>
	</g>
	<g id="Layer_5_1_">
		<path fill="#AFCB36" d="M-1.05,2.25H-1c0.1,0,0.167-0.018,0.2-0.051c0.067,0,0.133,0,0.2,0c0.5,0.065,0.95,0.051,1.35-0.05
			c0.333-0.065,0.7-0.134,1.1-0.2c0.4-0.032,0.85-0.3,1.35-0.8c0.467-0.5,0.617-1.384,0.45-2.649C3.517-2.2,3.233-2.884,2.8-3.551
			c-0.833-1.167-2.25-1.685-4.25-1.55c-2,0.134-3.167,0.633-3.5,1.5C-5.283-2.7-5.4-1.833-5.3-1c0.067,0.6,0.717,1.517,1.95,2.75
			c0.433,0.467,0.95,0.967,1.55,1.5C-1.9,3.149-1.967,3.032-2,2.899c0.133,0.199,0.3,0.366,0.5,0.5
			c0.067,0.133,0.167,0.25,0.3,0.351c-0.1-0.101-0.167-0.2-0.2-0.301C-1.733,2.883-2.033,2.316-2.3,1.75
			c-0.233-0.468-0.433-0.917-0.6-1.351l-0.4-1.301c-0.067-0.333-0.1-0.683-0.1-1.05c0.6-0.268,0.983-0.351,1.15-0.25
			C-1.783-2.067-1.533-2-1.5-2c0.367-0.468,0.817-0.583,1.35-0.351C0.383-2.117,0.767-1.7,1-1.101c0.1,0.232,0.167,0.417,0.2,0.55
			V-0.5c0.1,0.8-0.183,1.449-0.85,1.949c-0.2,0.101-0.4,0.2-0.6,0.301c-0.033,0.032-0.1,0.066-0.2,0.1
			C-0.55,1.884-0.667,1.917-0.8,1.95C-1.033,2.051-1.283,2.134-1.55,2.2c0.199,0,0.399,0,0.6,0C-0.985,2.2-1.018,2.218-1.05,2.25z"
			/>
	</g>
</symbol>
<g id="FondoB">
	<path d="M144.998,9.95c0.267,1.233,0.399,2.583,0.399,4.05v18.4c0,7.9-3.966,11.851-11.899,11.851h-101.5
		c-7.934,0-11.9-3.95-11.9-11.851V14c0-1.467,0.15-2.817,0.45-4.05c1.2-5.2,5.017-7.8,11.45-7.8h101.5
		C139.932,2.15,143.765,4.75,144.998,9.95z"/>
</g>
<g id="FondoA">
	<path fill="#AB237E" d="M143.748,13.55v19c0,6.667-3.334,10-10,10H31.798c-6.667,0-10-3.333-10-10v-19c0-6.667,3.333-10,10-10
		h101.95C140.414,3.55,143.748,6.883,143.748,13.55z"/>
</g>
<g id="Letters">
	<path fill="#AFCB36" d="M137.798,22.95c0.566,0.067,1.2,0.15,1.9,0.25l-1.801,0.2c0.7,2.566,0.667,5.25-0.1,8.05
		c-0.033,0.133-0.066,0.283-0.1,0.449c0-0.033,0-0.066,0-0.1c-0.032,0.032-0.05,0.065-0.051,0.1c0-0.134,0-0.268,0-0.399
		c-0.566-3.567-1.1-6.184-1.6-7.85l-6.3,0.75c-1,4.767-1.867,7.766-2.601,9c-0.166,0.267-0.399,0.417-0.699,0.45
		c-0.167,0.033-0.334,0.033-0.5,0c-0.301,0.066-0.567,0.017-0.801-0.149c-0.233-0.134-0.383-0.351-0.449-0.65
		c-0.067-0.267-0.034-0.533,0.1-0.8c0.667-1,1.483-3.25,2.45-6.75c0.1-0.3,0.2-0.583,0.3-0.85l-1.95,0.2
		c-0.166,0.034-0.333,0.034-0.5,0c-0.267,0.067-0.533,0.034-0.8-0.1c-0.267-0.167-0.434-0.383-0.5-0.65
		c-0.1-0.267-0.066-0.533,0.1-0.8c0.134-0.267,0.351-0.45,0.65-0.55c1.3-0.067,2.483-0.133,3.55-0.2c0.8-2.8,1.283-4.433,1.45-4.9
		l1.15-3.85c-0.2-0.3-0.384-0.617-0.551-0.95c-0.133-0.267-0.149-0.55-0.05-0.85c0.101-0.267,0.283-0.45,0.55-0.55
		c0.233-0.1,0.483-0.117,0.75-0.05c0.2-0.067,0.4-0.067,0.601,0c0.267,0.1,0.467,0.283,0.6,0.55c1.233,2.567,2.816,5.8,4.75,9.7
		C137.515,22.083,137.664,22.517,137.798,22.95z M71.848,9.9c0.267,0.167,0.434,0.383,0.5,0.65c0.333,1.233,0.65,2.483,0.95,3.75
		c0.367-0.033,0.717-0.033,1.05,0c1.567-0.033,3.083,0.117,4.55,0.45c6.5,1.4,9,4.983,7.5,10.75c-0.767,3.033-3.533,4.983-8.3,5.85
		c-1,0.2-2.233,0.351-3.7,0.45c-0.033,1-0.233,2.066-0.6,3.2c0,0.066,0,0.116,0,0.149c-0.067,0.101-0.117,0.2-0.15,0.301
		c0.033-0.167,0.066-0.334,0.1-0.5c-0.133-1.134-0.25-2.184-0.35-3.15c-1.833,0.1-4,0.116-6.5,0.05c2.6-0.267,4.75-0.5,6.45-0.7
		c-0.4-3.6-0.716-6.316-0.95-8.149c-0.3-2.267-0.65-4.417-1.05-6.45c-2,0.467-3.833,0.933-5.5,1.4l-1.45,1
		c-0.233,0.167-0.5,0.217-0.8,0.15c-0.167,0.034-0.333,0.034-0.5,0c-0.3-0.033-0.533-0.183-0.7-0.45
		c-0.167-0.233-0.217-0.5-0.15-0.8c0.066-0.3,0.216-0.533,0.45-0.7c0.7-0.467,1.467-0.867,2.3-1.2c1.466-0.633,3.133-1.1,5-1.4
		c0.267-0.033,0.533-0.067,0.8-0.1c-0.3-1.133-0.633-2.233-1-3.3c-0.1-0.267-0.083-0.533,0.05-0.8c0.167-0.267,0.383-0.433,0.65-0.5
		c0.2-0.066,0.417-0.066,0.65,0C71.381,9.783,71.615,9.8,71.848,9.9z M75.798,16.45l-2.1-0.05c0.333,2.133,0.567,4.267,0.7,6.4
		c0.1,1.733,0.117,4.467,0.05,8.2c1-0.167,1.767-0.316,2.3-0.45c4.667-1.1,7.267-2.9,7.8-5.4c0.867-3.867-0.433-6.467-3.9-7.8
		C79.381,16.883,77.765,16.583,75.798,16.45z M89.397,14.2c0.267,1.5,0.634,3.033,1.101,4.6c0.366,1.2,0.783,2.417,1.25,3.65
		c0.333,0.867,0.7,1.733,1.1,2.6c0.167,0.4,0.351,0.817,0.55,1.25c1.667,3.467,3.25,5.316,4.75,5.55
		c0.967-0.133,1.9-0.95,2.801-2.45c0.866-1.4,1.449-3.967,1.75-7.7c0.166-4.1,0.283-6.8,0.35-8.1c0.033,0.434,0.083,0.867,0.15,1.3
		c0.699,3.267,1.033,5.783,1,7.55c0,0.934-0.051,1.8-0.15,2.6c-0.267,2.667-0.9,4.633-1.9,5.9c-1.399,1.767-2.8,2.583-4.199,2.449
		c-2.167,0.2-4.334-1.733-6.5-5.8c-2.267-4.233-3.867-8.7-4.8-13.4c0-0.3,0.117-0.55,0.35-0.75c0.2-0.233,0.45-0.35,0.75-0.35
		c0.033,0,0.066,0,0.1,0c0.034,0,0.084,0,0.15,0c0.467,0,0.816,0.117,1.05,0.35C89.281,13.65,89.397,13.9,89.397,14.2z M113.848,7.9
		c-0.1-0.467-0.866-0.767-2.3-0.9h-0.15l-0.449,0.45c-0.5,0.967-0.483,1.567,0.05,1.8c0.467,0.233,1.066,0.167,1.8-0.2
		C113.564,8.683,113.914,8.3,113.848,7.9z M115.897,7.15c0.267,1.066-0.199,2.167-1.399,3.3c-1.167,1.133-2.267,1.567-3.3,1.3
		c-1.2-0.267-1.7-1.517-1.5-3.75c0.033-0.733,0.35-1.233,0.949-1.5c-0.1-0.2-0.149-0.383-0.149-0.55c0-0.3,0.1-0.55,0.3-0.75
		c0.2-0.233,0.45-0.35,0.75-0.35C114.114,5.083,115.564,5.85,115.897,7.15z M113.598,15.05c-0.2-0.2-0.3-0.433-0.3-0.7
		c0.033-0.267,0.134-0.483,0.3-0.65c0.2-0.167,0.434-0.233,0.7-0.2c0.167,0,0.316,0.017,0.45,0.05c0.1-0.033,0.217-0.05,0.35-0.05
		c0.867,0.033,1.4,0.1,1.601,0.2l0.149,0.45c1.033,1.133,1.816,3.517,2.351,7.15c0.533,3.7,0.55,7.167,0.05,10.4
		c-0.601,3.767-1.783,6.183-3.55,7.25c-0.767,0.5-1.634,0.716-2.601,0.649c-1.8,0.134-3.95-0.85-6.45-2.95
		c-1.333-1.133-2.149-2.283-2.449-3.449c-0.334-1.367,0.183-2.534,1.55-3.5l-0.101,0.05c0.601-0.467,2.117-0.684,4.551-0.65
		c0.5-0.033,1.066-0.033,1.699,0c1.5,0.034,3.284,0.133,5.351,0.3c0.033-1.5-0.101-3.1-0.4-4.8c-1.233-4.533-2.017-7.617-2.35-9.25
		h-0.3C113.965,15.317,113.765,15.217,113.598,15.05z M130.998,14.35c0,0.067,0,0.133,0,0.2l0.05-0.15L130.998,14.35z M135.647,22.7
		c-0.033-0.1-0.066-0.183-0.1-0.25c-1.267-2.2-2.65-4.65-4.15-7.35c-0.233,1.767-0.649,4.2-1.25,7.3
		c0.667-0.033,1.25-0.067,1.75-0.1c0.067,0,0.134,0.017,0.2,0.05c0.101-0.033,0.2-0.05,0.3-0.05
		C132.897,22.333,133.981,22.467,135.647,22.7z M115.698,35.25c0.933-1.667,1.449-3.617,1.55-5.85l-5.4,0.05
		c-3.233,0.167-5.166,0.883-5.8,2.15c-0.533,1.134-0.1,2.351,1.3,3.65c1.434,1.3,3.017,2.017,4.75,2.149
		c0.066,0,0.15,0.017,0.25,0.051C113.814,37.317,114.932,36.583,115.698,35.25z"/>
</g>
<g id="ojo1">
	
		<use xlink:href="#Ojo1"  width="55.25" height="8.25" id="XMLID_4_" x="-27.625" y="-4.125" transform="matrix(0.7385 0 0 -0.8493 48.0981 23.498)" overflow="visible"/>
</g>
<g id="handle1">
	<path d="M32.348,26.3l5.95,4l-2.45,1.1l-6.4,4.15l-18.05,8.4c-2.567,0.6-4.467-0.184-5.7-2.351c-1.3-2.1-0.783-4.033,1.55-5.8
		l18.55-8.05L32.348,26.3z M35.048,23.9l0.9,3.2l-3.15-0.75L35.048,23.9z"/>
</g>
<g id="handle2">
	<path fill="#AFCB36" d="M28.248,34.3l-17.65,7.95c-1.6,0.366-2.783-0.117-3.55-1.45c-0.8-1.366-0.467-2.6,1-3.7l17.55-7.45
		L28.248,34.3z"/>
	<path fill="#AFCB36" d="M29.498,33.6l-2.65-4.55c2.967-0.7,5.333-1.267,7.1-1.7l-0.05,3.05C32.698,31.234,31.231,32.3,29.498,33.6z
		"/>
</g>
<g id="Ojo2">
	
		<use xlink:href="#ojo2"  width="26.7" height="25.699" id="XMLID_1_" x="-13.35" y="-12.85" transform="matrix(0.8199 0 0 -0.8199 46.9375 22.937)" overflow="visible"/>
</g>
<g id="ringu">
	<path d="M35.348,12.4c3.167-3.233,7.05-4.85,11.65-4.85c4.566,0,8.45,1.617,11.65,4.85c3.233,3.167,4.85,7.05,4.85,11.65
		c0,4.567-1.617,8.45-4.85,11.65c-3.2,3.233-7.083,4.85-11.65,4.85c-4.6,0-8.483-1.616-11.65-4.85c-3.233-3.2-4.85-7.083-4.85-11.65
		C30.498,19.45,32.115,15.567,35.348,12.4z M46.998,9.2c-4.133,0-7.633,1.45-10.5,4.35c-2.9,2.867-4.35,6.367-4.35,10.5
		c0,4.1,1.45,7.6,4.35,10.5c2.867,2.9,6.367,4.35,10.5,4.35c4.1,0,7.6-1.449,10.5-4.35c2.9-2.9,4.35-6.4,4.35-10.5
		c0-4.133-1.45-7.633-4.35-10.5C54.598,10.65,51.098,9.2,46.998,9.2z"/>
</g>
<g id="ringu2">
	<path fill="#AFCB36" d="M38.198,15.3c-2.4,2.367-3.6,5.283-3.6,8.75c0,3.433,1.2,6.367,3.6,8.8c2.4,2.434,5.333,3.65,8.8,3.65
		c3.433,0,6.367-1.217,8.8-3.65c2.433-2.433,3.65-5.367,3.65-8.8c0-3.467-1.217-6.383-3.65-8.75c-2.433-2.433-5.367-3.65-8.8-3.65
		C43.531,11.65,40.598,12.867,38.198,15.3z M36.398,13.45c2.9-2.933,6.433-4.4,10.6-4.4s7.7,1.467,10.6,4.4
		c2.934,2.9,4.4,6.434,4.4,10.6s-1.467,7.7-4.4,10.6c-2.9,2.934-6.433,4.4-10.6,4.4s-7.7-1.467-10.6-4.4
		c-2.934-2.899-4.4-6.433-4.4-10.6S33.464,16.35,36.398,13.45z"/>
</g>
<g id="ringu3">
	<path fill="#AB237E" d="M54.698,16.35c-2.167-2.133-4.733-3.2-7.7-3.2c-3.1,0-5.7,1.066-7.8,3.2c-2.133,2.1-3.2,4.667-3.2,7.7
		c0,3,1.066,5.567,3.2,7.7c2.1,2.133,4.7,3.2,7.8,3.2c2.966,0,5.533-1.067,7.7-3.2c2.133-2.133,3.2-4.7,3.2-7.7
		C57.898,21.017,56.831,18.45,54.698,16.35z M37.948,15.05c2.467-2.467,5.483-3.7,9.05-3.7c3.466,0,6.45,1.233,8.95,3.7
		c2.5,2.433,3.75,5.433,3.75,9c0,3.5-1.25,6.483-3.75,8.95c-2.5,2.5-5.483,3.75-8.95,3.75c-3.567,0-6.583-1.25-9.05-3.75
		c-2.467-2.467-3.7-5.45-3.7-8.95C34.248,20.483,35.481,17.483,37.948,15.05z"/>
</g>
<linearGradient id="SVGID_1_" gradientUnits="userSpaceOnUse" x1="66.6763" y1="382.3027" x2="66.7187" y2="323.6" gradientTransform="matrix(1 0 0 -1 8.5 376)">
	<stop  offset="0" style="stop-color:#FFB0C7;stop-opacity:0.4"/>
	<stop  offset="1" style="stop-color:#00002E;stop-opacity:0.149"/>
</linearGradient>
<path fill="url(#SVGID_1_)" d="M145.398,13.85v18.4c0,7.9-3.966,11.85-11.899,11.85h-101.5c-5.167,0-8.65-1.667-10.45-5l-10.15,4.7
	c-2.567,0.6-4.467-0.184-5.7-2.351c-1.3-2.1-0.783-4.033,1.55-5.8l12.85-5.55V13.85c0-1.467,0.15-2.817,0.45-4.05
	c1.2-5.2,5.017-7.8,11.45-7.8h101.5c6.434,0,10.267,2.6,11.5,7.8C145.265,11.033,145.398,12.383,145.398,13.85z"/>
</svg>
