<?xml version="1.0" encoding="utf-8"?>
<!-- Generator: Adobe Illustrator 15.0.0, SVG Export Plug-In . SVG Version: 6.00 Build 0)  -->
<!DOCTYPE svg PUBLIC "-//W3C//DTD SVG 1.1//EN" "http://www.w3.org/Graphics/SVG/1.1/DTD/svg11.dtd">
<svg version="1.1" id="Layer_1" xmlns="http://www.w3.org/2000/svg" xmlns:xlink="http://www.w3.org/1999/xlink" x="0px" y="0px"
	 width="90px" height="90px" viewBox="0 0 90 90" enable-background="new 0 0 90 90" xml:space="preserve">
<g>
	<g id="Layer_4">
		
			<radialGradient id="SVGID_1_" cx="27.3169" cy="795.6494" r="49.95" gradientTransform="matrix(1 0 0 1 17 -751)" gradientUnits="userSpaceOnUse">
			<stop  offset="0" style="stop-color:#FCB0B8"/>
			<stop  offset="0.135" style="stop-color:#FC9191"/>
			<stop  offset="1" style="stop-color:#690000"/>
		</radialGradient>
		<path fill="url(#SVGID_1_)" d="M24.6,3.45h40.85c5.8,0,10.75,2.05,14.85,6.15c4.101,4.1,6.15,9.05,6.15,14.85V65.3
			c0,5.8-2.05,10.75-6.15,14.851c-4.1,4.102-9.05,6.149-14.85,6.149H24.6c-5.8,0-10.75-2.05-14.85-6.149
			C5.65,76.05,3.6,71.1,3.6,65.3V24.45c0-5.8,2.05-10.75,6.15-14.85S18.8,3.45,24.6,3.45z"/>
	</g>
	<g id="Layer_5">
		
			<radialGradient id="SVGID_2_" cx="163.9844" cy="1804.957" r="42.8687" gradientTransform="matrix(0.9812 0.1929 -0.07 0.3563 11.097 -631.4213)" gradientUnits="userSpaceOnUse">
			<stop  offset="0" style="stop-color:#FAD4D9;stop-opacity:0.4196"/>
			<stop  offset="0.0667" style="stop-color:#FABFBA;stop-opacity:0.4"/>
			<stop  offset="0.1725" style="stop-color:#FAB8B8;stop-opacity:0.3647"/>
			<stop  offset="0.4745" style="stop-color:#FA8F8F;stop-opacity:0"/>
		</radialGradient>
		<path fill="url(#SVGID_2_)" d="M24.6,3.45H65.45c5.8,0,10.75,2.05,14.85,6.15c4.101,4.1,6.15,9.05,6.15,14.85V65.3
			c0,5.8-2.05,10.75-6.15,14.851c-4.1,4.102-9.05,6.149-14.85,6.149H24.6c-5.8,0-10.75-2.05-14.85-6.149
			C5.65,76.05,3.6,71.1,3.6,65.3V24.45c0-5.8,2.051-10.75,6.15-14.85S18.8,3.45,24.6,3.45z"/>
	</g>
	<g id="Layer_9">
		
			<radialGradient id="SVGID_3_" cx="72.2002" cy="804.2002" r="49.95" gradientTransform="matrix(1 0 0 1 17 -751)" gradientUnits="userSpaceOnUse">
			<stop  offset="0.0549" style="stop-color:#A00F0F"/>
			<stop  offset="1" style="stop-color:#A00F0F;stop-opacity:0"/>
		</radialGradient>
		<path fill="url(#SVGID_3_)" d="M24.6,3.45H65.45c5.8,0,10.75,2.05,14.85,6.15c4.101,4.1,6.15,9.05,6.15,14.85V65.3
			c0,5.8-2.05,10.75-6.15,14.851c-4.1,4.102-9.05,6.149-14.85,6.149H24.6c-5.8,0-10.75-2.05-14.85-6.149
			C5.65,76.05,3.6,71.1,3.6,65.3V24.45c0-5.8,2.051-10.75,6.15-14.85S18.8,3.45,24.6,3.45z"/>
	</g>
	<g id="Layer_6">
		
			<radialGradient id="SVGID_4_" cx="38.7495" cy="895.9814" r="80.112" gradientTransform="matrix(1 0 0 0.8252 17 -753.4645)" gradientUnits="userSpaceOnUse">
			<stop  offset="0" style="stop-color:#F58A8A;stop-opacity:0.9255"/>
			<stop  offset="0.6157" style="stop-color:#E47979;stop-opacity:0.7882"/>
			<stop  offset="0.7294" style="stop-color:#E47979;stop-opacity:0.5882"/>
			<stop  offset="1" style="stop-color:#E47979;stop-opacity:0"/>
		</radialGradient>
		<path fill="url(#SVGID_4_)" d="M79.25,10.65c3.967,4,5.95,8.8,5.95,14.4V64.7c0,5.633-1.983,10.434-5.95,14.399
			c-3.967,3.967-8.768,5.948-14.4,5.948H25.2c-5.601,0-10.4-1.981-14.4-5.948C6.833,75.134,4.85,70.333,4.85,64.7V25.05
			c0-5.6,1.983-10.4,5.95-14.4c4-3.967,8.8-5.95,14.4-5.95H64.85C70.482,4.7,75.283,6.683,79.25,10.65z"/>
	</g>
	<g id="Layer_2">
		
			<radialGradient id="SVGID_5_" cx="148.8662" cy="1526.5684" r="230.7529" gradientTransform="matrix(0.9851 0.1718 -0.0738 0.4233 10.3599 -665.4871)" gradientUnits="userSpaceOnUse">
			<stop  offset="0" style="stop-color:#FFFFFF;stop-opacity:0.5765"/>
			<stop  offset="0.2627" style="stop-color:#FFFFFF;stop-opacity:0.1529"/>
			<stop  offset="0.3442" style="stop-color:#FFFFFF;stop-opacity:0"/>
			<stop  offset="1" style="stop-color:#FFFFFF;stop-opacity:0"/>
		</radialGradient>
		<path fill="url(#SVGID_5_)" d="M78.4,10.6c3.897,3.9,5.85,8.6,5.85,14.1v38.8c0,5.5-1.95,10.2-5.85,14.1
			C74.5,81.5,69.8,83.45,64.3,83.45H25.5c-5.5,0-10.2-1.95-14.1-5.851C7.5,73.7,5.55,69,5.55,63.5V24.7c0-5.5,1.95-10.2,5.851-14.1
			C15.3,6.7,20,4.75,25.5,4.75h38.8C69.8,4.75,74.5,6.7,78.4,10.6z"/>
	</g>
</g>
</svg>
