<?xml version="1.0" encoding="utf-8"?>
<!-- Generator: Adobe Illustrator 15.0.0, SVG Export Plug-In . SVG Version: 6.00 Build 0)  -->
<!DOCTYPE svg PUBLIC "-//W3C//DTD SVG 1.1//EN" "http://www.w3.org/Graphics/SVG/1.1/DTD/svg11.dtd">
<svg version="1.1" id="Layer_3" xmlns="http://www.w3.org/2000/svg" xmlns:xlink="http://www.w3.org/1999/xlink" x="0px" y="0px"
	 width="90px" height="90px" viewBox="0 0 90 90" enable-background="new 0 0 90 90" xml:space="preserve">
<symbol  id="trianglelight" viewBox="0 -69.988 51.251 69.975">
	<g id="Layer_1_2_">
		
			<radialGradient id="SVGID_1_" cx="12.6499" cy="-8.4502" r="303.15" gradientTransform="matrix(1 0 0 0.1565 0 -7.1279)" gradientUnits="userSpaceOnUse">
			<stop  offset="0" style="stop-color:#FFFFFF"/>
			<stop  offset="0.5216" style="stop-color:#FFFFFF;stop-opacity:0.5765"/>
			<stop  offset="0.6" style="stop-color:#FFFFFF;stop-opacity:0"/>
			<stop  offset="1" style="stop-color:#FFFFFF;stop-opacity:0"/>
		</radialGradient>
		<path fill-rule="evenodd" clip-rule="evenodd" fill="url(#SVGID_1_)" d="M51.25-34.95c0.033-0.899-0.567-1.783-1.8-2.649L8-67.55
			c-5.333-3.866-8-3.134-8,2.2V-4.65c0,5.334,2.667,6.066,8,2.2L38.3-24.4l-0.25,0.2l11.3-8.1
			C50.65-33.166,51.283-34.05,51.25-34.95z"/>
	</g>
</symbol>
<radialGradient id="SVGID_2_" cx="44" cy="51.0996" r="28.2125" gradientUnits="userSpaceOnUse">
	<stop  offset="0" style="stop-color:#FFFFFF"/>
	<stop  offset="0.2314" style="stop-color:#E4E4E4"/>
	<stop  offset="1" style="stop-color:#CCCCCC"/>
	<stop  offset="1" style="stop-color:#999999"/>
</radialGradient>
<path fill-rule="evenodd" clip-rule="evenodd" fill="url(#SVGID_2_)" d="M42.3,20.85c0.867-1.3,1.75-1.934,2.65-1.9
	c0.899-0.034,1.783,0.566,2.649,1.8L77.55,62.2c3.867,5.333,3.134,8-2.2,8h-60.7c-5.333,0-6.066-2.667-2.2-8L34.4,31.9l-0.2,0.25
	L42.3,20.85z"/>
<path fill-rule="evenodd" clip-rule="evenodd" fill="#FFFFFF" fill-opacity="0.302" d="M42.4,22.7c0.8-1.233,1.617-1.833,2.45-1.8
	c0.867-0.033,1.7,0.533,2.5,1.7l28.2,39c3.634,5,2.934,7.5-2.1,7.5h-57.1c-5,0-5.684-2.5-2.05-7.5l20.65-28.5l-0.2,0.2L42.4,22.7z"
	/>
<use xlink:href="#trianglelight"  width="51.251" height="69.975" y="-69.988" transform="matrix(0 -0.9405 -0.9405 0 12 69.0996)" overflow="visible"/>
</svg>
