<?xml version="1.0" encoding="utf-8"?>
<!DOCTYPE svg PUBLIC "-//W3C//DTD SVG 1.1//EN" "http://www.w3.org/Graphics/SVG/1.1/DTD/svg11.dtd">
<svg xmlns="http://www.w3.org/2000/svg" 
    xmlns:xlink="http://www.w3.org/1999/xlink"
    xmlns:svg="http://www.w3.org/2000/svg"
    xml:space="preserve"
    id="green_button"
    width="100%" height="100%"
    viewBox="0 0 90 90">
<g>
	<g id="Layer_4">
		
			<radialGradient id="SVGID_1_" cx="18.8169" cy="-729.6494" r="49.95" gradientTransform="matrix(1 0 0 -1 25.5 -685)" gradientUnits="userSpaceOnUse">
			<stop  offset="0" style="stop-color:#F2FFE7"/>
			<stop  offset="0.135" style="stop-color:#BCFBAC"/>
			<stop  offset="1" style="stop-color:#104F00"/>
		</radialGradient>
		<path fill="url(#SVGID_1_)" d="M24.6,3.45h40.85c5.8,0,10.75,2.05,14.85,6.15c4.101,4.1,6.15,9.05,6.15,14.85V65.3
			c0,5.8-2.05,10.75-6.15,14.851c-4.1,4.103-9.05,6.149-14.85,6.149H24.6c-5.8,0-10.75-2.05-14.85-6.149
			C5.65,76.05,3.6,71.1,3.6,65.3V24.45c0-5.8,2.05-10.75,6.15-14.85S18.8,3.45,24.6,3.45z"/>
	</g>
	<g id="Layer_5">
		
			<radialGradient id="SVGID_2_" cx="223.1523" cy="-2244.2773" r="42.8686" gradientTransform="matrix(0.9812 0.1929 0.07 -0.3563 -16.2057 -799.3645)" gradientUnits="userSpaceOnUse">
			<stop  offset="0" style="stop-color:#E6FFB9;stop-opacity:0.4196"/>
			<stop  offset="0.0667" style="stop-color:#CBFF8B;stop-opacity:0.4"/>
			<stop  offset="0.1725" style="stop-color:#D6FFB9;stop-opacity:0.3647"/>
			<stop  offset="0.4745" style="stop-color:#70FF17;stop-opacity:0"/>
		</radialGradient>
		<path fill="url(#SVGID_2_)" d="M24.6,3.45H65.45c5.8,0,10.75,2.05,14.85,6.15c4.101,4.1,6.15,9.05,6.15,14.85V65.3
			c0,5.8-2.05,10.75-6.15,14.851c-4.1,4.103-9.05,6.149-14.85,6.149H24.6c-5.8,0-10.75-2.05-14.85-6.149
			C5.65,76.05,3.6,71.1,3.6,65.3V24.45c0-5.8,2.051-10.75,6.15-14.85S18.8,3.45,24.6,3.45z"/>
	</g>
	<g id="Layer_9">
		
			<radialGradient id="SVGID_3_" cx="63.7002" cy="-738.2002" r="49.95" gradientTransform="matrix(1 0 0 -1 25.5 -685)" gradientUnits="userSpaceOnUse">
			<stop  offset="0.0549" style="stop-color:#047801"/>
			<stop  offset="1" style="stop-color:#047801;stop-opacity:0"/>
		</radialGradient>
		<path fill="url(#SVGID_3_)" d="M24.6,3.45H65.45c5.8,0,10.75,2.05,14.85,6.15c4.101,4.1,6.15,9.05,6.15,14.85V65.3
			c0,5.8-2.05,10.75-6.15,14.851c-4.1,4.103-9.05,6.149-14.85,6.149H24.6c-5.8,0-10.75-2.05-14.85-6.149
			C5.65,76.05,3.6,71.1,3.6,65.3V24.45c0-5.8,2.051-10.75,6.15-14.85S18.8,3.45,24.6,3.45z"/>
	</g>
	<g id="Layer_6">
		
			<radialGradient id="SVGID_4_" cx="30.249" cy="-909.5225" r="80.1128" gradientTransform="matrix(1 0 0 -0.8252 25.5 -764.6385)" gradientUnits="userSpaceOnUse">
			<stop  offset="0" style="stop-color:#FFFFFF;stop-opacity:0.9255"/>
			<stop  offset="0.6157" style="stop-color:#ADFF8B;stop-opacity:0.7882"/>
			<stop  offset="0.7294" style="stop-color:#B7FF8B;stop-opacity:0.5882"/>
			<stop  offset="1" style="stop-color:#ADFF73;stop-opacity:0"/>
		</radialGradient>
		<path fill="url(#SVGID_4_)" d="M79.25,10.65c3.967,4,5.95,8.8,5.95,14.4V64.7c0,5.633-1.983,10.434-5.95,14.399
			c-3.967,3.967-8.768,5.947-14.4,5.947H25.2c-5.601,0-10.4-1.98-14.4-5.947C6.833,75.134,4.85,70.333,4.85,64.7V25.05
			c0-5.6,1.983-10.4,5.95-14.4c4-3.967,8.8-5.95,14.4-5.95H64.85C70.482,4.7,75.283,6.683,79.25,10.65z"/>
	</g>
	<g id="Layer_2">
		
			<radialGradient id="SVGID_5_" cx="201.124" cy="-1845.2109" r="230.755" gradientTransform="matrix(0.9851 0.1718 0.0738 -0.4233 -17.6048 -809.3464)" gradientUnits="userSpaceOnUse">
			<stop  offset="0" style="stop-color:#FFFFFF;stop-opacity:0.5765"/>
			<stop  offset="0.2627" style="stop-color:#FFFFFF;stop-opacity:0.1529"/>
			<stop  offset="0.3442" style="stop-color:#FFFFFF;stop-opacity:0"/>
			<stop  offset="1" style="stop-color:#FFFFFF;stop-opacity:0"/>
		</radialGradient>
		<path fill="url(#SVGID_5_)" d="M78.4,10.6c3.896,3.9,5.85,8.6,5.85,14.1v38.8c0,5.5-1.95,10.2-5.85,14.1
			C74.5,81.5,69.8,83.45,64.3,83.45H25.5c-5.5,0-10.2-1.95-14.1-5.851C7.5,73.7,5.55,69,5.55,63.5V24.7c0-5.5,1.95-10.2,5.851-14.1
			C15.3,6.7,20,4.75,25.5,4.75h38.8C69.8,4.75,74.5,6.7,78.4,10.6z"/>
	</g>
	<g id="Layer_6_1_">
		
			<radialGradient id="SVGID_6_" cx="28.249" cy="-909.4668" r="80.1128" gradientTransform="matrix(-1 0 0 0.8252 62.5498 854.2919)" gradientUnits="userSpaceOnUse">
			<stop  offset="0" style="stop-color:#297300;stop-opacity:0.74"/>
			<stop  offset="0.6157" style="stop-color:#297300;stop-opacity:0.57"/>
			<stop  offset="0.7294" style="stop-color:#297300;stop-opacity:0.36"/>
			<stop  offset="1" style="stop-color:#297300;stop-opacity:0"/>
		</radialGradient>
		<path fill="url(#SVGID_6_)" d="M10.8,79.05c-3.967-4-5.95-8.8-5.95-14.399V25c0-5.633,1.983-10.434,5.95-14.399
			c3.967-3.967,8.768-5.947,14.4-5.947H64.85c5.601,0,10.4,1.98,14.4,5.947C83.217,14.566,85.2,19.367,85.2,25v39.65
			c0,5.6-1.983,10.399-5.95,14.399c-4,3.967-8.8,5.95-14.4,5.95H25.2C19.567,85,14.767,83.017,10.8,79.05z"/>
	</g>
</g>
</svg>
