<?xml version="1.0" encoding="utf-8"?>
<!DOCTYPE svg PUBLIC "-//W3C//DTD SVG 1.1//EN" "http://www.w3.org/Graphics/SVG/1.1/DTD/svg11.dtd">
<svg xmlns="http://www.w3.org/2000/svg" 
    xmlns:xlink="http://www.w3.org/1999/xlink"
    xmlns:svg="http://www.w3.org/2000/svg"
    xml:space="preserve"
    id="black_button"
    width="100%" height="100%"
    viewBox="0 0 90 90">
<symbol  id="triangleldark" viewBox="-25.626 -34.986 51.251 69.974">
	<g id="Layer_1_1_">
		
			<radialGradient id="SVGID_1_" cx="-12.9771" cy="92790" r="303.153" gradientTransform="matrix(1 0 0 0.1565 0 -14495.084)" gradientUnits="userSpaceOnUse">
			<stop  offset="0" style="stop-color:#000000;stop-opacity:0.81"/>
			<stop  offset="0.5216" style="stop-color:#000000;stop-opacity:0.42"/>
			<stop  offset="0.6" style="stop-color:#000000;stop-opacity:0"/>
			<stop  offset="1" style="stop-color:#000000;stop-opacity:0"/>
		</radialGradient>
		<path fill="url(#SVGID_1_)" d="M23.725,2.7c1.299-0.866,1.933-1.75,1.899-2.65c0.033-0.897-0.567-1.782-1.8-2.646l-41.45-29.951
			c-5.333-3.867-8-3.135-8,2.199V30.35c0,5.334,2.667,6.066,8,2.2l30.3-21.95l-0.25,0.2L23.725,2.7z"/>
	</g>
</symbol>
<radialGradient id="SVGID_2_" cx="23.7998" cy="794.1006" r="28.2123" gradientTransform="matrix(1 0 0 1 17 -751)" gradientUnits="userSpaceOnUse">
	<stop  offset="0" style="stop-color:#FFFFFF"/>
	<stop  offset="0.2314" style="stop-color:#E4E4E4"/>
	<stop  offset="1" style="stop-color:#848484"/>
</radialGradient>
<path fill="url(#SVGID_2_)" d="M72.95,44.05c0.032,0.9-0.566,1.783-1.8,2.65L29.7,76.65c-5.333,3.865-8,3.133-8-2.2v-60.7
	c0-5.333,2.667-6.067,8-2.2L60,33.5l-0.25-0.2l11.3,8.1C72.35,42.267,72.982,43.15,72.95,44.05z"/>
<path fill-opacity="0.549" d="M59.8,33.5l-0.25-0.2l11.3,8.1c1.301,0.867,1.936,1.75,1.9,2.65c0.033,0.9-0.566,1.783-1.801,2.65
	L29.5,76.65c-5.334,3.865-8,3.133-8-2.2v-60.7c0-5.333,2.666-6.067,8-2.2L59.8,33.5z"/>
<use xlink:href="#triangleldark"  width="51.251" height="69.974" id="XMLID_1_" x="-25.626" y="-34.986" transform="matrix(0.95 0 0 0.95 46.8945 43.9995)" overflow="visible"/>
</svg>
