<?xml version="1.0" encoding="utf-8"?>
<!DOCTYPE svg PUBLIC "-//W3C//DTD SVG 1.1//EN" "http://www.w3.org/Graphics/SVG/1.1/DTD/svg11.dtd">
<svg xmlns="http://www.w3.org/2000/svg" 
    xmlns:xlink="http://www.w3.org/1999/xlink"
    xmlns:svg="http://www.w3.org/2000/svg"
    xml:space="preserve"
    id="mundosvg"
    width="100%" height="100%"
    viewBox="0 0 64 64"
    enable-background="new 0 0 64 64">
<symbol  id="mundo" viewBox="-0.15 -43.7 44.451 56.049">
	<g id="Layer_3_2_">
		<path fill-rule="evenodd" clip-rule="evenodd" fill="#004063" d="M22.05-43.7c-6.134,0-11.367,2.166-15.7,6.5
			c-4.333,4.367-6.5,9.617-6.5,15.75c0,6.132,2.167,11.366,6.5,15.7c4.333,4.333,9.566,6.5,15.7,6.5c6.133,0,11.383-2.167,15.75-6.5
			c4.334-4.333,6.5-9.567,6.5-15.7c0-6.133-2.166-11.383-6.5-15.75C33.434-41.534,28.184-43.7,22.05-43.7z"/>
	</g>
	<g id="Layer_2_2_">
	</g>
	<g id="Layer_1_2_">
		<path fill-rule="evenodd" clip-rule="evenodd" fill="#FFFFFF" d="M22.101,0.05L21.25,0c-0.299-0.367-0.482-0.65-0.549-0.85
			C20.667-0.917,20.65-0.967,20.65-1c0-0.133,0.018-0.217,0.051-0.25L19.9-2.05c-0.4,0.033-0.6-0.017-0.6-0.15
			c-0.033-0.066,0-0.15,0.1-0.25L18-3.1L16.05-3.75c-0.4,0-0.75-0.117-1.051-0.35c-0.332-0.2-0.432-0.367-0.299-0.5
			c0.1-0.167-0.051-0.283-0.451-0.35l-0.6-0.55c-0.332,0.1-0.582,0.283-0.75,0.55c-0.033,0.067-0.066,0.15-0.1,0.25
			c-0.232,0.567-0.334,0.983-0.301,1.25c0.068,0.4,0.234,0.567,0.5,0.5c0.434,0.034,0.717,0.217,0.852,0.55L13.3-1.7
			c-0.232,0.067-0.268,0.233-0.1,0.5c-0.066,0-0.117,0-0.15,0c-0.066,0-0.117,0.017-0.15,0.05c1.6,0.733,3.283,1.25,5.051,1.55h3.1
			C21.15,0.167,21.5,0.05,22.101,0.05z M43-22.7c-0.332,1.666-0.732,2.35-1.199,2.051l-1.4,1.25c-0.6,0.299-1.133,0.416-1.6,0.35
			C38.5-18.85,38.25-18.7,38.051-18.6c-0.268,0.1-0.35,0.066-0.25-0.1L36.5-18.35c-0.6,0.5-0.932,0.701-1,0.6
			c0.268-0.133,0.217-0.332-0.148-0.6l1.199-1.15c0.801,0,1.232,0.234,1.301,0.701c0.033-0.301,0.1-0.566,0.199-0.801v-0.049
			c0.166-0.334,0.416-0.551,0.75-0.65c-0.268-0.633-0.551-1.1-0.85-1.4c-0.066-0.1-0.133-0.166-0.201-0.199
			c-0.199-0.135-0.432-0.217-0.699-0.25c-1.066-0.934-1.85-1.268-2.35-1L33.4-20.6c-0.467,1.033-0.766,1.418-0.9,1.15
			c-1.033,1.566-1.25,1.467-0.648-0.301l2.5-4.049l0.75-0.15l0.85,0.15c1.133,0.566,0.867-0.451-0.801-3.051
			c-1.166-0.766-1.75-1.717-1.75-2.85l0.1-2.75l-1.75-1.301l0.4-1.148L32.25-35l-1.049-0.799v-0.6l-1.701-2l-1.699,0.148
			l-0.65-0.148L26.951-37.1l-0.6,1.15L26.25-34.75l-0.799,1.25v1.25l0.4,0.852L25.551-29c-0.5,0.301-0.801,0.701-0.9,1.201
			c0.234,0.633,0.25,1.199,0.051,1.699l-1,0.25c-0.533,0.633-1.234,0.584-2.1-0.15l-0.75,0.352l-1.75-0.201L18.25-24.6l-0.299,1.051
			l-0.65,1.1l0.051,2.25l0.799,1.449l0.951,0.65l0.398,0.701l0.051,0.648l1.051,0.701L21.5-16.1l1.401,0.65h0.85l1.201,0.2
			l0.199-1.1l0.951-0.449c0.365-0.334,0.816-0.584,1.35-0.75c-0.033,0.434,0.033,0.699,0.199,0.799L28.9-17
			c0.033-0.398,0.867-0.482,2.5-0.25c0.633,1.634,0.584,2.15-0.15,1.551c-1.133,0-1.6,0.083-1.398,0.25
			c-0.467,0.301-0.65,0.75-0.551,1.35c-1.033-0.366-1.4-0.6-1.1-0.699c0.266-0.066,0.35-0.367,0.25-0.9
			c-0.6,1.2-0.918,1.533-0.951,1c-0.1,0.867-0.199,1.184-0.299,0.95L25.65-12.7c-0.133-0.6,0.383-1.066,1.551-1.4
			c0.033-0.332-0.018-0.433-0.15-0.299c-0.4,0-0.467-0.084-0.199-0.25l-0.75-0.851c-0.635,0.267-0.801,0.351-0.5,0.25l0.648,0.05
			l0.201,0.6l-0.9,0.65l-0.75,0.801l-1-0.351l-0.6-0.101L22.75-14.05c-0.467-0.233-0.6-0.5-0.398-0.801l-0.25-0.299L21.4-15.45
			c-0.4,0.066-0.65-0.1-0.75-0.5L20.3-15.3l-0.449-0.1c0.166,0.066,0.166,0.149,0,0.25l-0.102,0.75
			c0.201,0.033,0.234,0.25,0.102,0.649c-0.135,0.366-0.084,0.517,0.148,0.45l0.201,0.1l1.35-0.1l0.5,0.5
			c-0.166,0.267-0.217,0.55-0.15,0.85c-0.4-0.033-0.6,0.066-0.6,0.3c0.934,0.033,1.118,0.217,0.551,0.55l-0.15,0.1
			c-0.434-0.167-0.65-0.167-0.65,0l0.551,0.25c-0.135,0.067-0.184,0.2-0.15,0.4l-0.301-0.2c0.467,1,0.316,0.966-0.449-0.1l-0.9,0.05
			c0,0.2,0.1,0.283,0.301,0.25c-0.268,0.267-0.051,0.517,0.648,0.75c0.367-0.167,0.533,0.05,0.5,0.65l0.451,0.05l0.7-1.05
			c-0.266-0.233-0.2-0.367,0.201-0.4c0.365,0,0.266-0.183-0.301-0.55c-0.566-0.333-0.25-0.35,0.95-0.05
			c0.102,0.5,0.352,0.733,0.75,0.7c0.367,0.2,0.484,0.45,0.352,0.75c0.365,0.167,0.566,0.3,0.6,0.4l0.299-0.15
			c-0.066,0.031-0.1-0.069-0.1-0.3c-0.133-0.2,0.084-0.417,0.65-0.65c1.232,0.434,1.75,0.8,1.551,1.1l0.6,0.65l1.449,0.1L29-7.85
			L27.301-7.8L27.25-7.6l1.051,0.95c-0.4-0.1-0.518-0.05-0.35,0.15l-0.9-0.65c-0.133,0.333-0.25-0.05-0.35-1.15l-0.5-1.25l-0.6,0.05
			l-0.4,0.9c-0.268,0.233-0.5,0.117-0.701-0.35c-0.299,0.333-0.467,0.434-0.5,0.3c-0.266,0.233-0.283,0.617-0.049,1.15l0.75,0.5
			l0.15-0.1c0.299,0,0.865,0.583,1.699,1.75c0.699,0.333,1.783,0.317,3.25-0.05c1-0.3,1.566-0.567,1.699-0.8l-1.35-0.25L31-6.6
			h0.051l-0.25-0.45c0.566,0.267,0.9,0.4,1,0.4l0.4,0.5c0.133-0.033,0.266-0.033,0.4,0c0.199,0.066,0.383,0.2,0.549,0.4
			c0.066,0.067,0.15,0.15,0.25,0.25c0.533-0.167,0.967-0.217,1.301-0.15c0.232,0.066,0.4,0.2,0.5,0.4
			c1.166-0.333,1.684-0.167,1.549,0.5c0.367-0.333,0.717-0.667,1.051-1c4.334-4.333,6.5-9.567,6.5-15.7c0-1.066-0.066-2.1-0.199-3.1
			C43.734-23.516,43.367-22.899,43-22.7z M10.3-3l0.4-0.65L10-3.75c-0.066,0-0.115,0-0.148,0c-0.602,0-0.75-0.1-0.451-0.3
			c0.066-0.034,0.15-0.067,0.25-0.1L9.5-5C9.267-4.8,9.068-4.717,8.9-4.75c-0.066,0-0.133-0.033-0.199-0.1
			c-0.1,0.033-0.217,0.05-0.35,0.05c-0.334,0.133-0.5,0.267-0.5,0.4C8.55-3.767,9.283-3.217,10.05-2.75L10.3-3z M7.601-4.85
			C7.568-5.017,7.583-5.183,7.65-5.35C7.683-5.617,7.783-5.867,7.951-6.1C8.384-5.933,8.701-5.783,8.9-5.65
			C9.134-5.483,9.267-5.333,9.3-5.2C9.568-6.1,9.55-6.4,9.25-6.1l0.4-0.95c0.168-0.167,0.301-0.3,0.4-0.4
			c0.232-0.3,0.217-0.433-0.051-0.4C9.767-7.983,9.867-8.333,10.3-8.9l-0.199-0.55L9.25-9.35C9.117-9.383,9-9.417,8.9-9.45
			c-0.232,0-0.266,0.067-0.1,0.2l0.551,0.6L8.9-8.3c-0.434-0.534-1-0.667-1.699-0.4C7.068-9.6,7.083-10.033,7.25-10
			C6.818-10.4,6.5-10.533,6.3-10.4c-0.232,0.133-0.533,0.066-0.9-0.2l-0.549-0.2c-0.168-0.5-0.717-1.033-1.65-1.6
			c-0.168-0.033-0.418-0.201-0.75-0.5C2.351-13,2.216-13.101,2.05-13.2v-0.05l-0.801-0.7v-2.849l-0.5,0.449
			c0.068,0.434,0.033,0.75-0.1,0.951c0.801,3.033,2.268,5.766,4.4,8.199c0.033,0.034,0.066,0.05,0.1,0.05
			C5.283-7.083,5.4-6.983,5.5-6.85C5.667-6.683,5.75-6.533,5.75-6.4c0.201,0.233,0.4,0.45,0.602,0.65c0.299,0.3,0.633,0.6,1,0.9
			H7.601z M1.65-21.45c0.033,0.1,0.066,0.25,0.1,0.449c1.434-0.033,2.533-0.148,3.301-0.35c0.834-0.166,1.301-0.434,1.4-0.799
			C7.65-22.717,8.466-23.233,8.9-23.7c0.234-0.232,0.316-0.482,0.25-0.75c2.566-1.133,3.918-1.834,4.051-2.1
			c0.166-1.367-0.117-2.15-0.85-2.35c0.365-1.668,0.232-2.617-0.4-2.852c-0.834-0.432-1.383-0.832-1.65-1.199
			c-0.268-0.268-0.35-0.518-0.25-0.75C10.017-33.766,10-33.817,10-33.85c-0.066-0.232-0.148-0.467-0.25-0.699
			c-0.299-0.701-0.582-1.283-0.85-1.75c-0.4-0.533-0.766-0.9-1.1-1.1c-0.301-0.102-0.533-0.268-0.699-0.5
			c-0.268,0.232-0.518,0.467-0.75,0.699c-0.934,0.967-1.768,1.949-2.5,2.949C3.75-33.284,3.65-32.217,3.55-31.049
			c-1.467,1.467-2.416,2.6-2.85,3.4C0.433-26.817,0.25-25.967,0.15-25.1c0.066,0.633,0.383,1,0.951,1.1
			c0.1,1.834-0.234,2.367-1,1.602c-0.068,0.066-0.15,0.115-0.25,0.148c0,0.201,0,0.385,0,0.551c0.166-0.232,0.365-0.184,0.6,0.15
			l0.9-0.15c0.066-0.166,0.148-0.184,0.25-0.051C1.634-21.682,1.65-21.583,1.65-21.45z"/>
	</g>
	<g id="Layer_5_2_">
		<path fill-rule="evenodd" clip-rule="evenodd" fill="#003B59" d="M8.45,8.55L7.3,4H5.55l-2.2,7.05h2.2l1.15-4.3l1.1,4.3h1.9
			l1.05-4.3l1.15,4.3h1.6L11.45,4h-1.9L8.45,8.55z M31.051,11.05l1.15-4.3l1.1,4.3h1.9l1.049-4.3l1.15,4.3H39L36.951,4h-1.9
			l-1.1,4.55L32.801,4h-1.75l-2.199,7.05H31.051z M26.25,11.05L24.201,4H22.3l-1.1,4.55L20.05,4H18.3l-2.2,7.05h2.2l1.15-4.3
			l1.1,4.3h1.901l1.049-4.3l1.15,4.3H26.25z"/>
	</g>
	<g id="Layer_4_2_">
		<path fill-rule="evenodd" clip-rule="evenodd" fill="#FFFFFF" d="M32.201,8.05l1.1,4.3h1.9l1.049-4.3l1.15,4.3H39L36.951,5.3h-1.9
			l-1.1,4.55l-1.15-4.55h-1.75l-2.199,7.05h2.199L32.201,8.05z M20.55,12.35h1.901l1.049-4.3l1.15,4.3h1.6L24.201,5.3H22.3
			l-1.1,4.55L20.05,5.3H18.3l-2.2,7.05h2.2l1.15-4.3L20.55,12.35z M10.75,8.05l1.15,4.3h1.6L11.451,5.3h-1.9l-1.1,4.55L7.3,5.3H5.55
			l-2.2,7.05h2.2l1.15-4.3l1.1,4.3h1.9L10.75,8.05z"/>
	</g>
</symbol>
<polygon fill-rule="evenodd" clip-rule="evenodd" fill="#009966" points="49.2,0 49.1,0.1 49.1,0 "/>
<use xlink:href="#mundo"  width="44.451" height="56.049" id="XMLID_1_" x="-0.15" y="-43.7" transform="matrix(1 0 0 -1 9.6997 16.2998)" overflow="visible"/>
</svg>
